<svg width="68" height="16" viewBox="0 0 68 16" fill="none" xmlns="http://www.w3.org/2000/svg">
<path d="M16.44 13.02H15.62L15.44 13.22H18.5C18.4867 13.2333 18.4733 13.2467 18.46 13.26C18.4467 13.2733 18.4267 13.2933 18.4 13.32H13.68C13.6133 13.3867 13.54 13.4533 13.46 13.52C13.3933 13.5867 13.32 13.6533 13.24 13.72H14.7L14.44 13.92H17.16L17 14.02H15.82C15.8067 14.0333 15.78 14.0467 15.74 14.06C15.7133 14.0733 15.6867 14.0933 15.66 14.12H14.32L13.76 14.42H14.54C14.3667 14.5 14.1933 14.5733 14.02 14.64C13.8467 14.6933 13.6667 14.7533 13.48 14.82H12.76C12.3067 14.9533 11.8133 15.0533 11.28 15.12H11.38C11.1667 15.1467 10.9467 15.1667 10.72 15.18C10.4933 15.1933 10.2667 15.2 10.04 15.2C9.78667 15.2 9.53333 15.1933 9.28 15.18C9.04 15.1667 8.80667 15.1467 8.58 15.12H8.5C7.92667 15.0533 7.41333 14.9533 6.96 14.82H7.68C7.48 14.7533 7.29333 14.6933 7.12 14.64C6.94667 14.5733 6.77333 14.5 6.6 14.42H5.82C5.72667 14.3667 5.63333 14.32 5.54 14.28C5.44667 14.2267 5.35333 14.1733 5.26 14.12H6.62L6.46 14.02H7.64C7.62667 13.9933 7.60667 13.9733 7.58 13.96C7.55333 13.9467 7.52667 13.9333 7.5 13.92H4.78C4.72667 13.8933 4.68 13.86 4.64 13.82C4.6 13.78 4.56 13.7467 4.52 13.72H3.04C2.97333 13.6533 2.90667 13.5867 2.84 13.52C2.76 13.4533 2.68667 13.3867 2.62 13.32H7.34C7.32667 13.2933 7.31333 13.2733 7.3 13.26C7.28667 13.2467 7.27333 13.2333 7.26 13.22H4.2C4.14667 13.1667 4.09333 13.1 4.04 13.02H4.86C4.84667 12.9933 4.83333 12.9733 4.82 12.96C4.80667 12.9467 4.79333 12.9333 4.78 12.92H7.28L7.1 12.62H5.86L5.8 12.52H2.98C2.96667 12.4667 2.94667 12.42 2.92 12.38C2.89333 12.3267 2.86667 12.2733 2.84 12.22H4.18L4.06 11.92H3.58L3.54 11.82H3.76C3.74667 11.7667 3.73333 11.72 3.72 11.68C3.70667 11.6267 3.69333 11.5733 3.68 11.52H3.52C3.52 11.4667 3.51333 11.42 3.5 11.38C3.5 11.3267 3.49333 11.2733 3.48 11.22H3.32C3.32 11.1667 3.31333 11.12 3.3 11.08C3.3 11.04 3.3 10.9933 3.3 10.94V10.92H3.28C3.28 10.8933 3.28 10.8733 3.28 10.86C3.29333 10.8467 3.3 10.8333 3.3 10.82H3.76C3.82667 10.6067 3.96667 10.5 4.18 10.5H7.98C8.19333 10.5 8.35333 10.5267 8.46 10.58C8.56667 10.6333 8.68667 10.7133 8.82 10.82H8.36L8.38 10.84C8.40667 10.8533 8.42667 10.8667 8.44 10.88C8.46667 10.8933 8.48667 10.9067 8.5 10.92H8.52C8.69333 11.0533 8.90667 11.1533 9.16 11.22H9.34C9.51333 11.2733 9.74667 11.3 10.04 11.3C10.2133 11.3 10.3733 11.2933 10.52 11.28C10.6667 11.2667 10.7933 11.2467 10.9 11.22H10.84C11.1467 11.1533 11.34 11.0533 11.42 10.92H11.38C11.4067 10.8667 11.42 10.8333 11.42 10.82H11.62L11.64 10.74C11.64 10.62 11.5933 10.5133 11.5 10.42H11.34C11.22 10.3 11.0067 10.2 10.7 10.12H10.64C10.52 10.08 10.38 10.0467 10.22 10.02C10.06 9.98 9.87333 9.94667 9.66 9.92H9.54L8.72 9.8C8.62667 9.78667 8.53333 9.77333 8.44 9.76C8.36 9.74667 8.27333 9.73333 8.18 9.72C7.63333 9.62667 7.10667 9.49333 6.6 9.32H6.24C6.05333 9.25333 5.88 9.18667 5.72 9.12H5.44C5.37333 9.09333 5.30667 9.06667 5.24 9.04C5.17333 9 5.10667 8.96 5.04 8.92H3.3C3.20667 8.86667 3.12 8.82 3.04 8.78C2.96 8.72667 2.88 8.67333 2.8 8.62H6.52C6.45333 8.56667 6.38667 8.52 6.32 8.48C6.26667 8.42667 6.20667 8.37333 6.14 8.32H2.16C2.12 8.29333 2.08667 8.26 2.06 8.22C2.02 8.18 1.98667 8.14667 1.96 8.12H3C2.88 7.98667 2.76667 7.85333 2.66 7.72H2.96L2.84 7.52H0.92C0.906667 7.49333 0.893333 7.47333 0.88 7.46C0.866667 7.44667 0.86 7.43333 0.86 7.42H5.42C5.39333 7.36667 5.36667 7.32 5.34 7.28C5.31333 7.22667 5.28667 7.17333 5.26 7.12H1.76L1.64 6.82H4.46L4.42 6.72H3.58L3.54 6.62H3.94C3.94 6.59333 3.93333 6.57333 3.92 6.56C3.92 6.54667 3.92 6.53333 3.92 6.52H3.84L3.78 6.32H3.66L3.64 6.12H3.6V6.02H2.96C2.94667 5.99333 2.94 5.96 2.94 5.92C2.94 5.88 2.94 5.84667 2.94 5.82H2.36L2.34 5.62H4.62C4.60667 5.59333 4.6 5.56 4.6 5.52C4.6 5.48 4.6 5.44667 4.6 5.42H4.92V5.4C4.92 5.33333 4.92 5.26667 4.92 5.2C4.92 5.13333 4.92667 5.07333 4.94 5.02H4.08C4.09333 4.96667 4.1 4.92 4.1 4.88C4.1 4.82667 4.10667 4.77333 4.12 4.72H5.52C5.52 4.69333 5.52 4.67333 5.52 4.66C5.53333 4.64667 5.54 4.63333 5.54 4.62H4.12C4.14667 4.54 4.16 4.47333 4.16 4.42H3.94L4 4.22H3.66C3.7 4.07333 3.74667 3.94 3.8 3.82H3.96L4.04 3.62H4.26L4.44 3.32H4.24C4.28 3.26667 4.31333 3.22 4.34 3.18C4.38 3.12667 4.41333 3.07333 4.44 3.02H4.28L4.52 2.72H4.94C4.95333 2.69333 4.96667 2.67333 4.98 2.66C4.99333 2.64667 5.00667 2.63333 5.02 2.62H4.46C4.51333 2.56667 4.56667 2.52 4.62 2.48C4.67333 2.42667 4.72667 2.37333 4.78 2.32H5.1C5.18 2.25333 5.26 2.18667 5.34 2.12C5.42 2.04 5.50667 1.97333 5.6 1.92H5.96C6.04 1.86667 6.12 1.82 6.2 1.78C6.28 1.72667 6.36667 1.67333 6.46 1.62H6.4C6.42667 1.59333 6.46 1.57333 6.5 1.56C6.54 1.54667 6.57333 1.53333 6.6 1.52H6.32C6.34667 1.49333 6.38 1.47333 6.42 1.46C6.46 1.44667 6.5 1.43333 6.54 1.42H6.34C6.52667 1.34 6.72 1.26667 6.92 1.2C7.13333 1.13333 7.34667 1.07333 7.56 1.02H7.86C8.16667 0.953332 8.48667 0.899999 8.82 0.86C9.16667 0.819999 9.52667 0.799999 9.9 0.799999C10.6067 0.799999 11.2733 0.873332 11.9 1.02H11.62C12.0467 1.11333 12.46 1.24667 12.86 1.42H13.04C13.08 1.43333 13.12 1.44667 13.16 1.46C13.2 1.47333 13.24 1.49333 13.28 1.52H13.56C13.5867 1.53333 13.62 1.54667 13.66 1.56C13.7 1.57333 13.7333 1.59333 13.76 1.62H13.82C13.9133 1.67333 14 1.72667 14.08 1.78C14.1733 1.82 14.26 1.86667 14.34 1.92H14C14.1067 1.97333 14.2 2.04 14.28 2.12C14.3733 2.18667 14.46 2.25333 14.54 2.32H14.24L14.56 2.62H15.12L15.22 2.72H14.8C14.8533 2.77333 14.9 2.82667 14.94 2.88C14.9933 2.92 15.04 2.96667 15.08 3.02H15.24L15.48 3.32H15.66L15.84 3.62H15.62C15.66 3.68667 15.6933 3.75333 15.72 3.82H15.56C15.6 3.88667 15.6333 3.95333 15.66 4.02C15.6867 4.08667 15.7133 4.15333 15.74 4.22H16.08C16.1067 4.3 16.12 4.36667 16.12 4.42H16.36C16.3733 4.44667 16.38 4.48 16.38 4.52C16.38 4.56 16.3867 4.59333 16.4 4.62H17.82V4.72H16.54C16.5533 4.77333 16.56 4.84667 16.56 4.94V5.02H15.82C15.7667 5.26 15.6333 5.38 15.42 5.38H11.42C11.2333 5.38 11.08 5.35333 10.96 5.3C10.8533 5.24667 10.74 5.16667 10.62 5.06L10.56 5.02H11.3C11.2333 4.96667 11.14 4.91333 11.02 4.86C10.9 4.79333 10.7467 4.74667 10.56 4.72H9.84C9.56 4.76 9.36667 4.86 9.26 5.02H10.12C10.08 5.1 10.06 5.18 10.06 5.26C10.06 5.32667 10.0667 5.38 10.08 5.42H9.78C9.79333 5.48667 9.84667 5.55333 9.94 5.62H7.68C7.76 5.68667 7.9 5.75333 8.1 5.82H8.68C8.78667 5.86 8.91333 5.9 9.06 5.94C9.22 5.96667 9.38667 5.99333 9.56 6.02H10.2C10.3067 6.03333 10.42 6.04667 10.54 6.06C10.66 6.07333 10.7867 6.09333 10.92 6.12H10.94C11.1667 6.14667 11.3867 6.18 11.6 6.22C11.8133 6.24667 12.0133 6.28 12.2 6.32H12.32C12.48 6.34667 12.6267 6.38 12.76 6.42C12.9067 6.44667 13.0467 6.48 13.18 6.52H13.26C13.3267 6.53333 13.3867 6.54667 13.44 6.56C13.4933 6.57333 13.5467 6.59333 13.6 6.62H13.22C13.2733 6.63333 13.32 6.64667 13.36 6.66C13.4133 6.67333 13.4667 6.69333 13.52 6.72H14.36C14.4 6.73333 14.44 6.74667 14.48 6.76C14.5333 6.77333 14.58 6.79333 14.62 6.82H11.8C12.0667 6.92667 12.28 7.02667 12.44 7.12H15.94C16.02 7.17333 16.1 7.22667 16.18 7.28C16.26 7.32 16.3333 7.36667 16.4 7.42H11.84C11.8667 7.43333 11.8933 7.44667 11.92 7.46C11.9467 7.47333 11.9667 7.49333 11.98 7.52H13.9C13.94 7.54667 13.98 7.58 14.02 7.62C14.06 7.66 14.0933 7.69333 14.12 7.72H13.82C13.9533 7.84 14.0667 7.97333 14.16 8.12H13.12C13.1467 8.14667 13.1733 8.18 13.2 8.22C13.2267 8.26 13.2467 8.29333 13.26 8.32H17.22L17.4 8.62H13.68C13.7067 8.67333 13.7333 8.72667 13.76 8.78C13.7867 8.82 13.8067 8.86667 13.82 8.92H15.54L15.6 9.12H15.88L15.94 9.32H16.3C16.3267 9.37333 16.34 9.44 16.34 9.52C16.3533 9.58667 16.3667 9.65333 16.38 9.72L16.4 9.92H16.52C16.5333 9.94667 16.54 9.98 16.54 10.02C16.54 10.06 16.54 10.0933 16.54 10.12H16.6V10.42H16.78V10.48C16.78 10.5333 16.7733 10.5867 16.76 10.64C16.76 10.6933 16.76 10.7533 16.76 10.82H16.56V10.92H16.6C16.6 10.9733 16.5933 11.0267 16.58 11.08C16.58 11.12 16.5733 11.1667 16.56 11.22H16.62L16.56 11.52H16.72C16.7067 11.5733 16.6933 11.6267 16.68 11.68C16.6667 11.72 16.6467 11.7667 16.62 11.82H16.4C16.4 11.8333 16.3933 11.8467 16.38 11.86C16.38 11.8733 16.38 11.8933 16.38 11.92H16.86L16.74 12.22H15.4C15.3867 12.2733 15.36 12.3267 15.32 12.38C15.2933 12.42 15.2667 12.4667 15.24 12.52H18.06L18 12.62H19.22C19.1933 12.6733 19.16 12.7267 19.12 12.78C19.0933 12.82 19.06 12.8667 19.02 12.92H16.52C16.5067 12.9333 16.4933 12.9467 16.48 12.96C16.4667 12.9733 16.4533 12.9933 16.44 13.02ZM11.24 4.72H11.84C11.8 4.70667 11.7533 4.7 11.7 4.7C11.66 4.7 11.6133 4.7 11.56 4.7C11.5067 4.7 11.4533 4.7 11.4 4.7C11.3467 4.7 11.2933 4.70667 11.24 4.72ZM28.1853 4.52V4.58C28.1853 4.7 28.1453 4.81333 28.0653 4.92H30.8253C30.732 5.05333 30.592 5.12 30.4053 5.12H24.6853V5.22H23.1653V5.52H22.4853V5.92H23.1653V6.22H22.9853V6.52H22.9053V6.6H28.2253C28.3586 6.6 28.472 6.64 28.5653 6.72H28.6053C28.672 6.77333 28.7253 6.84 28.7653 6.92H28.6453C28.6853 6.97333 28.7053 7.04667 28.7053 7.14V7.32H28.6253V7.42H29.1453V7.82H28.6853V8.02H28.8053V8.32H28.8653V8.42H29.0453V8.72H28.7453V8.82H27.7253V9.22H27.4853V9.52H29.0053V9.92H28.4453V10.16C28.4453 10.2267 28.4386 10.28 28.4253 10.32H28.3853C28.332 10.4667 28.252 10.5667 28.1453 10.62H27.7453C27.6786 10.6733 27.5853 10.7 27.4653 10.7H22.1453V10.92H22.7453V11.12H23.6453V11.42H21.7653V11.62H23.4853V11.92H22.1853V12.02H23.1853V12.42H22.6253V12.82H22.8853V12.92H22.7653V13.32H23.0853V13.42H22.9453V13.52H22.6653V13.72H22.9453V13.92H22.6653V14.22H23.6053V14.32H24.2253V14.46C24.2253 14.4733 24.2186 14.4867 24.2053 14.5C24.2053 14.5 24.2053 14.5067 24.2053 14.52H25.8853C25.8853 14.56 25.8786 14.5933 25.8653 14.62H23.0653C23.0386 14.74 22.9653 14.84 22.8453 14.92H24.2853C24.2186 14.9733 24.1253 15 24.0053 15H20.1853C20.0653 15 19.972 14.9733 19.9053 14.92H18.4453C18.352 14.8533 18.2786 14.7533 18.2253 14.62H21.0053C21.0053 14.58 20.9986 14.5467 20.9853 14.52H19.3253V14.32H18.7053V14.22H17.7653V13.92H18.0453V13.72H17.7653V13.52H18.0453V13.42H18.1853V13.32H17.8653V12.92H17.9853V12.82H17.7253V12.42H18.2853V12.02H17.2853V11.92H18.5853V11.62H16.8653V11.42H18.7453V11.12H17.8453V10.92H17.2453V10.62H17.6453V10.32H17.6853V9.92H18.2453V9.52H16.7253V9.22H16.9653V8.82H17.9853V8.72H18.2853V8.42H18.1053V8.32H18.0453V8.02H17.9253V7.82H18.3853V7.42H17.8653V7.32H17.9453V6.92H18.0453V6.72H18.0053V6.52H18.0853V6.22H18.2653V5.92H17.5853V5.52H18.2653V5.22H19.7853V4.92H17.0253V4.52H20.0653V4.22H17.1253V4.02H17.2053V3.82H18.9053V3.42H18.1653V3.02H18.5053V2.62H17.9853V2.22H18.0453V1.92H17.8653V1.62H17.9653V1.54C17.9653 1.48667 17.972 1.44667 17.9853 1.42H17.1853C17.1986 1.35333 17.2186 1.3 17.2453 1.26C17.2853 1.20667 17.3253 1.16 17.3653 1.12H17.2053C17.312 1.04 17.4253 0.999999 17.5453 0.999999H27.6253C27.7586 0.999999 27.872 1.04 27.9653 1.12H28.1253C28.2186 1.18667 28.2853 1.28667 28.3253 1.42H29.1053C29.1186 1.44667 29.1253 1.48667 29.1253 1.54V1.62H29.0253V1.92H29.2053V2.22H29.1453V2.62H29.6653V3.02H29.3253V3.42H30.0653V3.82H28.3653V4.02H28.2853V4.22H31.2253V4.52H28.1853ZM38.615 4.42H35.355V4.82H36.655V5.22H38.375V5.52H36.435V5.62H36.675V6.02H36.175V6.12H36.135V6.22H35.635V6.62H36.575V6.72H36.615V6.82H36.395V7.12H36.255V7.22H36.915V7.62H35.315V8.02H35.895V8.32H36.215V8.72H36.255V9.12H36.095V9.62H36.275V9.82H36.155V10.12H36.135V10.22H35.975V10.62H36.155V10.82H36.135V12.02H36.155V12.42H36.495V12.82H36.215V13.02H36.135V13.22H36.375V13.62H36.035V13.72H36.535V13.92H36.715V14.02H36.555V14.32H36.475V14.46C36.475 14.4867 36.4683 14.5133 36.455 14.54C36.455 14.5667 36.4483 14.5933 36.435 14.62H35.935C35.9217 14.6867 35.8817 14.7533 35.815 14.82H36.375C36.3217 14.8733 36.2817 14.9067 36.255 14.92H35.115C35.0483 14.9733 34.955 15 34.835 15H30.755C30.635 15 30.5417 14.9733 30.475 14.92H31.615C31.5617 14.9067 31.5217 14.8733 31.495 14.82H30.935C30.8683 14.7533 30.8283 14.6867 30.815 14.62H31.335C31.3217 14.58 31.315 14.5267 31.315 14.46V14.32H31.395V14.02H31.555V13.92H31.375V13.72H30.875V13.62H31.215V13.22H30.975V13.02H31.055V12.82H31.335V12.42H30.995V12.02H30.975V10.82H30.995V10.62H30.815V10.22H30.975V10.12H30.995V9.82H31.115V9.62H30.935V9.12H31.095V8.72H31.055V8.32H30.735V8.02H30.155V7.62H31.755V7.22H31.095V7.12H31.235V6.82H31.455V6.72H31.415V6.62H30.475V6.22H30.975V6.12H31.015V6.02H31.515V5.62H31.275V5.52H33.215V5.22H31.495V4.82H30.195V4.42H33.455V4.32H31.415V4.02H31.395V3.72H31.035V3.62H32.255V3.42H31.335V3.02H31.415V2.72H30.855V2.32H30.955V2.12H30.895V1.92H31.055V1.82H30.875V1.54C30.875 1.47333 30.8883 1.4 30.915 1.32H31.015C31.1083 1.10667 31.275 0.999999 31.515 0.999999H35.595C35.835 0.999999 36.0017 1.10667 36.095 1.32H35.995C36.0217 1.4 36.035 1.47333 36.035 1.54V1.82H36.215V1.92H36.055V2.12H36.115V2.32H36.015V2.72H36.575V3.02H36.495V3.42H37.415V3.62H36.195V3.72H36.555V4.02H36.575V4.32H38.615V4.42ZM53.5783 4.12C53.6049 4.17333 53.6316 4.22667 53.6583 4.28C53.6849 4.32 53.7049 4.36667 53.7183 4.42H52.9783C53.0049 4.47333 53.0316 4.54 53.0583 4.62C53.0849 4.68667 53.1116 4.75333 53.1383 4.82H49.9983L50.1183 5.22H51.7383L51.7983 5.52H51.5783C51.5916 5.54667 51.5983 5.58 51.5983 5.62C51.5983 5.66 51.6049 5.69333 51.6183 5.72H51.0783L51.0983 5.92H51.5183C51.5183 5.97333 51.5183 6.02667 51.5183 6.08C51.5316 6.12 51.5383 6.16667 51.5383 6.22H52.2783C52.2916 6.27333 52.2983 6.32 52.2983 6.36C52.2983 6.4 52.2983 6.44667 52.2983 6.5V6.52H50.4183C50.4183 6.58667 50.4183 6.65333 50.4183 6.72C50.4316 6.78667 50.4383 6.85333 50.4383 6.92H50.8583C50.8583 6.98667 50.8583 7.05333 50.8583 7.12C50.8716 7.18667 50.8783 7.25333 50.8783 7.32H51.5983V7.42H51.3183V7.82H51.3983V8.12H52.5783V8.52H51.4583V8.72H51.3383C51.3383 8.74667 51.3383 8.78 51.3383 8.82C51.3383 8.86 51.3316 8.89333 51.3183 8.92H50.9583V9.32H50.9983C50.9849 9.36 50.9783 9.41333 50.9783 9.48V9.52H51.7183C51.7183 9.57333 51.7116 9.62667 51.6983 9.68C51.6983 9.72 51.6983 9.76667 51.6983 9.82H51.9983C51.9983 9.88667 51.9916 9.95333 51.9783 10.02C51.9783 10.0867 51.9716 10.1533 51.9583 10.22H51.5183C51.5049 10.2467 51.4983 10.28 51.4983 10.32C51.4983 10.36 51.4916 10.3933 51.4783 10.42H49.0783C49.0783 10.4733 49.0649 10.54 49.0383 10.62H51.1383C51.1116 10.7 51.0983 10.7667 51.0983 10.82H51.3983C51.3849 10.8733 51.3716 10.9267 51.3583 10.98C51.3583 11.02 51.3449 11.0667 51.3183 11.12L51.2583 11.32H50.6783L50.6383 11.42H51.5783C51.5516 11.4733 51.5383 11.5067 51.5383 11.52H50.9383L50.8983 11.62H50.8783C50.8516 11.6867 50.8249 11.7533 50.7983 11.82C50.7716 11.8867 50.7383 11.9533 50.6983 12.02H50.3983L50.1783 12.42H50.5183L50.3983 12.62H50.4183C50.3916 12.6467 50.3649 12.68 50.3383 12.72C50.3116 12.76 50.2849 12.7933 50.2583 12.82H50.1183C50.0783 12.86 50.0516 12.8933 50.0383 12.92C49.9983 12.9733 49.9583 13.0267 49.9183 13.08C49.8783 13.12 49.8316 13.1667 49.7783 13.22H49.7183C49.6516 13.2867 49.5783 13.3533 49.4983 13.42C49.4316 13.4867 49.3583 13.5533 49.2783 13.62H49.4583L49.0383 13.92H49.0583C48.9516 13.9867 48.8383 14.0533 48.7183 14.12C48.5983 14.1867 48.4716 14.2533 48.3383 14.32H48.3183C48.1849 14.3867 48.0183 14.4533 47.8183 14.52H47.8383C47.5716 14.6133 47.2916 14.6933 46.9983 14.76C46.7049 14.8267 46.4049 14.88 46.0983 14.92H46.5183C46.3049 14.9467 46.0849 14.9667 45.8583 14.98C45.6316 14.9933 45.3983 15 45.1583 15H39.2983C39.1783 15 39.0849 14.9733 39.0183 14.92H38.5983C38.4649 14.84 38.3849 14.7067 38.3583 14.52H38.3383V14.32H38.3783V13.92H38.3383V13.62H38.1783V13.22H38.2383V12.92H38.2183V12.82H38.3783V12.62H38.3583V12.42H37.9983V12.02H38.3183V11.62H38.3383V11.52H38.9383V11.42H38.0183V11.32H38.5983V10.82H38.3183V10.62H38.2983V10.42H38.8183V10.22H36.5183V9.82H36.4383V9.52H36.6983V9.32H37.5183V8.92H38.0383V8.72H38.3383V8.52H38.6583V8.12H39.1183V7.82H39.5583V7.42H38.2183V7.32H37.7783V6.92H36.8983V6.52H39.1783V6.22H37.4183V5.92H38.3783V5.72H38.3383V5.52H38.1783V5.22H37.3183V4.82H40.4383V4.42H41.1783V4.12H37.5783V3.72H39.9383V3.62H38.0783V3.52H41.8583V3.12H41.3783V3.02H36.6183V2.62H37.1983V2.32H38.4383V2.22H39.0983V2.02H38.7383V1.92H38.3183V1.72H38.3583V1.54C38.3583 1.51333 38.3583 1.49333 38.3583 1.48C38.3716 1.45333 38.3783 1.43333 38.3783 1.42H38.4583C38.5249 1.14 38.7049 0.999999 38.9983 0.999999H44.7583C45.7849 0.999999 46.7183 1.14 47.5583 1.42H47.4783C47.7183 1.5 47.9649 1.6 48.2183 1.72H48.1783C48.2449 1.74667 48.3116 1.78 48.3783 1.82C48.4583 1.84667 48.5249 1.88 48.5783 1.92H48.9983L49.1783 2.02H49.5183C49.5849 2.04667 49.6383 2.08 49.6783 2.12C49.7316 2.16 49.7849 2.19333 49.8383 2.22H49.1783C49.2049 2.23333 49.2316 2.24667 49.2583 2.26C49.2849 2.27333 49.3049 2.29333 49.3183 2.32H48.0783L48.4583 2.62H47.8583C48.0049 2.74 48.1383 2.87333 48.2583 3.02H53.0183C53.0316 3.03333 53.0449 3.04667 53.0583 3.06C53.0716 3.07333 53.0849 3.09333 53.0983 3.12H53.5983C53.6516 3.17333 53.7049 3.24 53.7583 3.32C53.8116 3.38667 53.8583 3.45333 53.8983 3.52H50.1183C50.1316 3.53333 50.1449 3.54667 50.1583 3.56C50.1716 3.57333 50.1849 3.59333 50.1983 3.62H52.0583L52.1183 3.72H49.7583C49.8516 3.85333 49.9249 3.98667 49.9783 4.12H53.5783ZM46.5183 5.52C46.4383 5.4 46.3383 5.3 46.2183 5.22H44.5983C44.3049 5.00667 43.9449 4.9 43.5183 4.9H42.3183V5.22H43.1783V5.52H43.3383V5.72H43.3783V5.92H42.4183V6.22H44.1783V6.52H41.8983V6.92H42.7783V7.32H43.2183V7.42H44.5583V7.82H44.1183V8.12H43.6583V8.52H43.3383V8.72H43.0383V8.92H42.5183V9.32H41.6983V9.52H41.4383V9.82H41.5183V10.22H43.8183V10.42H43.2983V10.62H43.3183V10.82H43.5983V11.1H44.8983C45.2849 11.1 45.6116 11.0067 45.8783 10.82H45.5583C45.5983 10.7933 45.6383 10.7667 45.6783 10.74C45.7183 10.7 45.7516 10.66 45.7783 10.62H43.6983C43.7249 10.5933 43.7516 10.5667 43.7783 10.54C43.8049 10.5 43.8249 10.46 43.8383 10.42H46.2383C46.2649 10.3933 46.2849 10.3667 46.2983 10.34C46.3116 10.3 46.3249 10.26 46.3383 10.22H46.7983C46.8249 10.1533 46.8449 10.0867 46.8583 10.02C46.8716 9.95333 46.8849 9.88667 46.8983 9.82H46.5983C46.6116 9.76667 46.6183 9.72 46.6183 9.68C46.6183 9.62667 46.6249 9.57333 46.6383 9.52H45.8983V9.48C45.8983 9.45333 45.8983 9.42667 45.8983 9.4C45.9116 9.37333 45.9183 9.34667 45.9183 9.32H45.8783C45.8783 9.25333 45.8783 9.18667 45.8783 9.12C45.8783 9.04 45.8849 8.97333 45.8983 8.92H46.2583V8.72H46.3783L46.3983 8.52H47.5183V8.12H46.3383V7.82H46.2583V7.42H46.5383V7.32H45.7983V6.92H45.3583C45.3583 6.85333 45.3583 6.78667 45.3583 6.72C45.3583 6.65333 45.3516 6.58667 45.3383 6.52H47.2183V6.5C47.2183 6.44667 47.2116 6.4 47.1983 6.36C47.1983 6.30667 47.1983 6.26 47.1983 6.22H46.4583C46.4449 6.16667 46.4316 6.12 46.4183 6.08C46.4049 6.02667 46.3916 5.97333 46.3783 5.92H45.9583C45.9449 5.88 45.9316 5.84667 45.9183 5.82C45.9049 5.78 45.8916 5.74667 45.8783 5.72H46.4183C46.4049 5.68 46.3849 5.64667 46.3583 5.62C46.3449 5.58 46.3249 5.54667 46.2983 5.52H46.5183ZM67.0314 13.92L67.1714 14.32H66.8314L66.8714 14.42C66.8714 14.4333 66.8714 14.4533 66.8714 14.48C66.8847 14.4933 66.8914 14.5067 66.8914 14.52H66.7714V14.56C66.7714 14.72 66.7114 14.84 66.5914 14.92H66.6114C66.5447 14.9733 66.4581 15 66.3514 15H62.6514C62.5581 15 62.4781 14.9933 62.4114 14.98C62.3581 14.9533 62.2981 14.9333 62.2314 14.92C62.1247 14.8667 62.0447 14.8067 61.9914 14.74C61.9381 14.66 61.8981 14.5867 61.8714 14.52H61.9714V14.5L61.9314 14.42L61.8914 14.32H62.2314L62.0914 13.92H61.7114L61.6514 13.72H62.4714L62.3314 13.32H62.0914L62.0314 13.18H57.7314L57.6914 13.32H57.4514L57.3114 13.72H57.0914L57.0114 13.92H56.8914L56.7514 14.32H56.7714L56.7314 14.42L56.7114 14.5L56.6914 14.52H56.5914C56.5647 14.5867 56.5247 14.66 56.4714 14.74C56.4181 14.8067 56.3381 14.8667 56.2314 14.92H56.8314C56.7781 14.9333 56.7181 14.9533 56.6514 14.98C56.5847 14.9933 56.5047 15 56.4114 15H52.7114C52.6047 15 52.5247 14.9733 52.4714 14.92H51.8714C51.7381 14.8267 51.6714 14.7067 51.6714 14.56V14.52H51.7914C51.7914 14.48 51.7981 14.4467 51.8114 14.42L51.8314 14.32H51.8114L51.9514 13.92H52.0714L52.1514 13.72H52.3714L52.5114 13.32H52.7314L52.8714 12.92H52.0914L52.1714 12.72H52.1114L52.2114 12.42H52.4114L52.4514 12.32H52.0114L52.1514 11.92H52.8314L52.8914 11.72H52.2714L52.3114 11.62H52.4114L52.5514 11.22H52.4914L52.5914 10.92H52.6714L52.8114 10.52H53.0714L53.1714 10.22L53.2114 10.12H54.2114L54.2514 10.02H54.1914L54.2914 9.72H53.1714L53.3114 9.32H53.6714L53.7114 9.22H53.4914L53.5314 9.12H54.1714L54.3114 8.72H53.5314L53.6114 8.52H53.9114L54.0514 8.12H53.8714L53.9714 7.82H54.1914L54.3314 7.42H54.2714L54.3114 7.32H53.8514L53.9314 7.12H54.3714L54.4714 6.82H54.2714L54.2914 6.72H54.6514L54.7914 6.32H54.3514L54.4514 6.02H54.2314L54.2914 5.82H52.9114L52.9714 5.62H52.7114L52.8514 5.22H52.5914L52.7114 4.92H53.4914L53.6314 4.52H55.6314L55.7314 4.22H54.7714L54.8514 4.02H55.5914L55.7314 3.62H55.0714L55.1714 3.32H55.5914L55.7314 2.92H55.6714L55.8114 2.52H55.2514L55.2714 2.42H57.1914L57.3314 2.02H57.2714L57.3114 1.92H56.6114L56.6914 1.66L56.7514 1.52H56.9514L57.0714 1.32H57.0114C57.0781 1.22667 57.1714 1.15333 57.2914 1.1C57.4114 1.03333 57.5581 0.999999 57.7314 0.999999H62.0714C62.2447 0.999999 62.3914 1.03333 62.5114 1.1C62.6314 1.15333 62.7247 1.22667 62.7914 1.32H62.8714L62.9914 1.52H62.7914C62.8181 1.57333 62.8314 1.62 62.8314 1.66L62.9314 1.92H63.6314L63.6514 2.02H63.7114L63.8514 2.42H61.9514L61.9914 2.52H62.5514L62.6914 2.92H62.7514L62.8914 3.32H62.4714L62.5714 3.62H63.2314L63.3714 4.02H62.6314L62.7114 4.22H63.6714L63.7714 4.52H61.7714L61.9114 4.92H61.1314L61.2314 5.22H61.4714L61.6114 5.62H60.8314L60.9114 5.82H64.0914L64.1514 6.02H63.9914L64.0914 6.32H63.6914L63.8314 6.72H63.3514L63.3714 6.82H64.0914L64.1914 7.12H64.2114L64.2914 7.32H63.6314L63.6714 7.42H64.3114L64.4514 7.82H64.6714L64.7714 8.12H64.7114L64.8514 8.52H65.1714L65.2514 8.72H64.6714L64.8114 9.12H65.2114L65.2314 9.22H65.1314L65.1714 9.32H64.8114L64.9314 9.72H66.0714L66.1714 10.02H66.2314L66.2714 10.12H65.2514L65.2914 10.22H65.3114L65.4114 10.52H65.1514L65.2914 10.92H65.1914L65.3114 11.22H65.3714L65.5114 11.62H65.4114L65.4514 11.72H66.0714L66.1514 11.92H65.4514L65.5914 12.32H66.0314L66.0714 12.42H65.8714L65.9914 12.72H66.0314L66.1114 12.92H66.8914L67.0314 13.32H67.2714L67.4114 13.72H66.5914L66.6514 13.92H67.0314ZM58.6714 6.02H58.9114L58.8114 6.32H59.6314L59.5314 6.02H59.6914L59.6314 5.82H58.7314L58.6714 6.02ZM59.3314 6.72L59.2314 6.38L59.1314 6.72H59.3314ZM58.1314 9.12L58.0914 9.22H58.3114L58.2914 9.28H60.5514L60.5314 9.22H60.6314L60.6114 9.12H60.2114L60.0914 8.72H60.6714L60.6114 8.52H60.2714L60.1514 8.12H60.2114L60.1314 7.82H59.9114L59.7914 7.42H59.1514L59.1114 7.32H59.7714L59.7114 7.12H59.6914L59.5914 6.82H58.9514L58.8714 7.12H58.4314L58.3714 7.32H58.8114L58.7914 7.42H58.8514L58.7314 7.82H58.5114L58.4114 8.12H58.5914L58.4714 8.52H58.1714L58.1114 8.72H58.8914L58.7714 9.12H58.1314Z" fill="#0094FF"/>
</svg>
