<svg width="338" height="39" viewBox="0 0 338 39" fill="none" xmlns="http://www.w3.org/2000/svg">
<path d="M0 39V0.649998H1.95V39H0ZM7.8 39V0.649998H11.7V39H7.8ZM15.6 39V0.649998H17.55V39H15.6ZM21.4551 39V0.649998H25.3551V39H21.4551ZM31.2051 39V0.649998H33.1551V39H31.2051ZM39.0051 39V0.649998H40.9551V39H39.0051ZM42.9102 39V0.649998H44.8602V39H42.9102ZM52.6602 39V0.649998H54.6102V39H52.6602ZM56.5602 39V0.649998H60.4602V39H56.5602ZM64.3652 39V0.649998H66.3152V39H64.3652ZM68.2652 39V0.649998H72.1652V39H68.2652ZM76.0652 39V0.649998H78.0152V39H76.0652ZM85.8203 39V0.649998H89.7203V39H85.8203ZM93.6203 39V0.649998H95.5703V39H93.6203ZM99.4703 39V0.649998H101.42V39H99.4703ZM107.275 39V0.649998H111.175V39H107.275ZM113.125 39V0.649998H117.025V39H113.125ZM120.925 39V0.649998H124.825V39H120.925ZM128.73 39V0.649998H130.68V39H128.73ZM136.53 39V0.649998H140.43V39H136.53ZM144.33 39V0.649998H146.28V39H144.33ZM150.186 39V0.649998H154.086V39H150.186ZM156.036 39V0.649998H161.886V39H156.036ZM167.736 39V0.649998H169.686V39H167.736ZM171.641 39V0.649998H173.591V39H171.641ZM175.541 39V0.649998H177.491V39H175.541ZM183.341 39V0.649998H187.241V39H183.341ZM193.096 39V0.649998H195.046V39H193.096ZM196.996 39V0.649998H200.896V39H196.996ZM206.746 39V0.649998H212.596V39H206.746ZM214.551 39V0.649998H216.501V39H214.551ZM222.351 39V0.649998H226.251V39H222.351ZM228.201 39V0.649998H230.151V39H228.201ZM236.006 39V0.649998H237.956V39H236.006ZM241.856 39V0.649998H245.756V39H241.856ZM247.706 39V0.649998H253.556V39H247.706ZM257.461 39V0.649998H259.411V39H257.461ZM265.261 39V0.649998H271.111V39H265.261ZM273.061 39V0.649998H276.961V39H273.061ZM278.916 39V0.649998H282.816V39H278.916ZM284.766 39V0.649998H290.616V39H284.766ZM292.566 39V0.649998H298.416V39H292.566ZM300.371 39V0.649998H304.271V39H300.371ZM306.221 39V0.649998H312.071V39H306.221ZM317.921 39V0.649998H319.871V39H317.921ZM321.826 39V0.649998H325.726V39H321.826ZM329.626 39V0.649998H331.576V39H329.626ZM335.476 39V0.649998H337.426V39H335.476Z" fill="black"/>
</svg>
