<svg width="80" height="80" viewBox="0 0 80 80" fill="none" xmlns="http://www.w3.org/2000/svg">
<circle cx="39.8678" cy="39.8679" r="28.5" transform="rotate(-25 39.8678 39.8679)" fill="#FAFAFA" fill-opacity="0.65" stroke="#5B5B5B" stroke-width="3"/>
<circle cx="39.8678" cy="39.8679" r="24.5" transform="rotate(-25 39.8678 39.8679)" stroke="#5B5B5B"/>
<path d="M27.4268 42.8096C28.2791 44.6674 30.091 46.1197 32.0613 46.1395L31.7564 47.5284C30.3632 47.4846 29.0397 46.7641 27.9797 45.6474C28.1851 47.2746 27.881 48.8452 26.9691 49.9988L25.7092 49.3396C27.0073 47.7678 27.0341 45.3319 26.1496 43.4051L25.377 41.7483L26.6542 41.1527L27.4268 42.8096ZM30.6923 38.2472L32.5916 42.3202L34.1909 41.5745L34.7006 42.6675L33.1013 43.4133L35.5425 48.6485L34.2653 49.244L29.4151 38.8427L30.6923 38.2472ZM44.5435 37.8816L45.021 38.9056L35.5402 43.3266L35.0627 42.3026L37.2718 41.2724L36.6548 39.9492C35.7195 39.9862 35.0267 39.6719 34.7101 38.9931C34.1307 37.7504 35.2485 36.3327 37.5382 35.265C39.8279 34.1973 41.621 34.2576 42.2119 35.4949C42.5254 36.1822 42.3208 36.9149 41.6829 37.6046L42.2999 38.9278L44.5435 37.8816ZM40.5642 41.7543C42.8025 40.6965 44.4599 40.7361 45.0294 41.9274C45.5812 43.1409 44.5408 44.4244 42.2972 45.4707C40.0305 46.5276 38.367 46.5049 37.8037 45.2968C37.2457 44.1002 38.2922 42.7997 40.5642 41.7543ZM41.0149 42.7208C39.4961 43.429 38.8187 44.1091 39.1038 44.6905C39.366 45.2827 40.3277 45.2124 41.8465 44.5042C43.3308 43.8121 44.0143 43.1151 43.7522 42.5229C43.4671 41.9415 42.4991 42.0286 41.0149 42.7208ZM37.9996 36.2545C36.4578 36.9734 35.7328 37.7317 36.0448 38.3707C36.3284 39.0089 37.3699 38.9294 38.9117 38.2105C40.442 37.4969 41.1839 36.7447 40.8888 36.1119C40.5883 35.4676 39.5299 35.5409 37.9996 36.2545ZM38.5605 40.6715L41.0227 39.5233L40.5613 38.5338C40.2115 38.76 39.8107 38.9819 39.3678 39.1885C38.9248 39.395 38.4972 39.5594 38.0991 39.682L38.5605 40.6715ZM51.1152 28.7238L52.3438 31.3586L53.7936 30.6826L54.2925 31.7527L52.8428 32.4287L54.0392 34.9945L52.7621 35.59L49.838 29.3193L51.1152 28.7238ZM54.27 35.4892L55.9064 38.9985L49.1869 42.1319L47.5505 38.6226L54.27 35.4892ZM49.2883 39.0449L49.9697 40.5061L54.1578 38.5532L53.4765 37.0919L49.2883 39.0449ZM49.5569 30.6691L50.0344 31.6931L43.8673 34.5689L43.3898 33.5449L45.8405 32.4021L45.3416 31.332L46.6187 30.7365L47.1177 31.8065L49.5569 30.6691ZM47.1279 33.5107C48.6352 32.8079 50.0133 33.0897 50.5399 34.1889C51.0488 35.3104 50.3735 36.5358 48.8663 37.2386C47.3475 37.9468 45.9632 37.6818 45.4428 36.5657C44.9277 35.4612 45.6091 34.2189 47.1279 33.5107ZM47.5786 34.4772C46.7847 34.8474 46.4225 35.4225 46.6854 35.9863C46.9537 36.5616 47.627 36.6538 48.4209 36.2836C49.2148 35.9134 49.5885 35.3329 49.3203 34.7576C49.0574 34.1939 48.3725 34.107 47.5786 34.4772Z" fill="#5B5B5B"/>
</svg>
